<?xml version="1.0" encoding="UTF-8" standalone="no"?>
<svg version = "1.1"
     baseProfile="full"
     xmlns = "http://www.w3.org/2000/svg"
     xmlns:xlink = "http://www.w3.org/1999/xlink"
     xmlns:ev = "http://www.w3.org/2001/xml-events"
     height = "120"  width = "470">

     <g fill="white" fill-rule="evenodd">
       <path d="M0 0 h 60 v 120 h -60 v -120 M15 15 h 30 v 90 h -30 v -90"/>
       <path d="M65 0 h 60 v 40 h -15 v -25 h -30 v 90 h 30 v -25 h 15 V 120 h -60 Z"/>
       <path d="M130 0 h 45 v 15 h -15 v 105 h -15 v -105 h -15 Z"/>
       <path d="M180 0 h 60 v 120 h -60 v -120 M195 15 h 30 v 90 h -30 v -90"/>
       <path d="M245 0 h 60 v 35 q 0 30 -45 30 v 55 h -15 v -120 M260 15 h 30 v 20 q 0 15 -30 15 v -35"/>
       <path d="M310 0 h 15 v 105 h 30 v -105 h 15 v 120 h -60 Z"/>
       <path d="M375 0 h 60 v 40 h -15 v -25 h -30 v 30 l 45 30 v 45 h -60 v -50 l 15 10 v 25 h 30 v -25 l -45 -30 v -50"/>
     </g>
</svg>
