<svg width="1362" height="1626" viewBox="0 0 1362 1626" fill="none" xmlns="http://www.w3.org/2000/svg">
<g opacity="0.15">
<path d="M569.865 585.495L485.263 662.975L581.105 649.963L573.414 585.495H569.865Z" fill="#71808C" stroke="white" stroke-miterlimit="10"/>
<path d="M1030.74 426.394L1211.77 320.524L1251.41 290.36L1214.73 439.998L1030.74 431.717V426.394Z" fill="#71808C" stroke="white" stroke-miterlimit="10"/>
<path d="M998.197 867.026L1072.74 945.689L1074.52 1091.78L1015.95 1215.98L1014.76 1256.2L1117.11 1130.22L1136.64 1004.83L1119.48 942.141L1030.74 861.703L998.197 867.026Z" fill="#71808C" stroke="white" stroke-miterlimit="10"/>
<path d="M-32.4031 1412.94L19.0677 1398.74L100.12 1456.7L97.1614 1473.86L33.8582 1426.54L14.9264 1417.08L-30.6282 1418.85L-32.4031 1412.94Z" fill="#71808C" stroke="white" stroke-miterlimit="10"/>
<path d="M282.93 401.553L440.892 384.401L485.263 439.998L282.93 408.059V401.553Z" fill="#71808C" stroke="white" stroke-miterlimit="10"/>
<path d="M749.125 503.875L813.611 532.856L863.307 467.205L749.125 503.875Z" fill="#71808C" stroke="white" stroke-miterlimit="10"/>
<path d="M1037.84 431.718L1208.22 437.632L1120.66 503.875L1091.67 470.753L1030.74 437.632L1037.84 431.718Z" fill="#71808C" stroke="white" stroke-miterlimit="10"/>
<path d="M572.231 588.452L579.331 652.921L611.87 688.408L634.351 675.987L623.702 629.854L576.373 585.495L572.231 588.452Z" fill="#71808C" stroke="white" stroke-miterlimit="10"/>
<path d="M572.231 510.381L671.032 614.476L720.728 648.78L769.24 796.643L778.706 803.741L849.109 788.363L766.874 582.538L575.781 506.24L572.231 510.381Z" fill="#71808C" stroke="white" stroke-miterlimit="10"/>
<path d="M813.612 539.362L876.323 709.7L879.873 624.531L885.197 589.044L813.612 532.856V539.362Z" fill="#71808C" stroke="white" stroke-miterlimit="10"/>
<path d="M1111.2 1138.5L1033.69 1236.09L1105.28 1177.54L1111.2 1138.5Z" fill="#71808C" stroke="white" stroke-miterlimit="10"/>
<path d="M1067.42 1304.11H1153.79L1186.92 1339.6L1182.19 1297.6L1168.58 1270.4L1067.42 1298.2V1304.11Z" fill="#71808C" stroke="white" stroke-miterlimit="10"/>
<path d="M1230.11 1068.12L1136.64 1152.11L1286.32 1079.36L1230.11 1068.12Z" fill="#71808C" stroke="white" stroke-miterlimit="10"/>
<path d="M863.308 467.205L998.197 475.485L1115.34 542.319L1109.42 639.909L1059.73 727.444L1099.36 775.351H1227.15L1304.06 878.264L1299.92 988.866L1278.03 1004.83L1279.22 929.129L1204.67 834.497L1073.92 833.905L997.605 766.48L995.239 721.529L1044.34 639.909L1043.16 601.464L978.673 573.666L918.328 539.953L818.345 532.264L863.308 467.205Z" fill="#71808C" stroke="white" stroke-miterlimit="10"/>
<path d="M671.031 614.476L720.727 648.781L728.418 747.553L636.718 793.095L492.363 820.893L467.515 935.043L498.279 1010.16L511.294 1091.78L436.75 954.561L442.075 882.404L461.598 783.632L533.184 767.071L600.629 751.693L634.943 736.315L679.314 715.615L671.031 614.476Z" fill="#71808C" stroke="white" stroke-miterlimit="10"/>
<path d="M798.23 1433.05L826.036 1351.43L876.324 1309.43V1325.99L807.104 1433.05H798.23Z" fill="#71808C" stroke="white" stroke-miterlimit="10"/>
<path d="M755.042 1130.81L890.522 1110.11L977.49 905.471L1033.69 968.165L970.391 1149.15L771.015 1182.86L755.042 1130.81Z" fill="#71808C" stroke="white" stroke-miterlimit="10"/>
<path d="M728.419 867.026L755.041 905.471L724.869 984.134V869.392L728.419 867.026Z" fill="#71808C" stroke="white" stroke-miterlimit="10"/>
<path d="M728.418 859.337L807.695 852.24L845.559 788.363L881.056 747.553L885.198 823.85L847.334 898.965L757.999 905.471L728.418 859.337Z" fill="#71808C" stroke="white" stroke-miterlimit="10"/>
<path d="M245.066 1253.24L182.946 1324.22L171.114 1425.36L226.726 1339.6L291.212 1271.58L245.066 1253.24Z" fill="#71808C" stroke="white" stroke-miterlimit="10"/>
<path d="M660.974 1453.16L680.497 1526.5L610.687 1489.83L660.974 1453.16Z" fill="#71808C" stroke="white" stroke-miterlimit="10"/>
<path d="M479.347 1351.43V1398.15L518.986 1408.21L604.179 1386.91L586.43 1363.85L479.347 1351.43Z" fill="#71808C" stroke="white" stroke-miterlimit="10"/>
<path d="M601.221 1107.75L645.592 1221.9L623.111 1363.85L645.592 1317.71L688.189 1215.39L649.733 1097.69H596.488L601.221 1107.75Z" fill="#71808C" stroke="white" stroke-miterlimit="10"/>
<path d="M445.625 493.82H307.778L208.386 565.977L202.47 639.909L246.25 583.129L319.019 532.856L408.353 534.039L445.625 493.82Z" fill="#71808C" stroke="white" stroke-miterlimit="10"/>
<path d="M572.232 585.495L484.08 667.116L333.218 695.505L275.239 778.9L286.48 895.416L366.94 948.055L362.207 959.884L272.872 904.879L253.941 736.907L309.553 648.78L473.431 600.873L567.499 506.24L572.232 585.495Z" fill="#71808C" stroke="white" stroke-miterlimit="10"/>
<path d="M1323.59 822.667L1239.58 768.254L1107.65 712.657L1159.71 619.799L1161.48 541.728L1131.31 503.283L1218.28 444.138L1223.01 433.492L1262.06 286.812L1157.93 114.108L1157.34 113.516L1056.77 10.6034L869.224 0.548706L574.006 91.6324L447.4 261.379L439.117 377.895L261.631 398.005L116.685 522.801L89.4703 685.451L91.2451 691.957L127.926 735.724V739.864L153.365 928.537L322.568 1055.11H414.861L443.258 1142.64L400.662 1211.84L381.73 1225.45L270.506 1184.64L174.072 1233.14L148.041 1259.75L135.025 1386.91L101.894 1415.3L19.6593 1362.66L-70.8584 1420.63L-63.759 1431.27L17.8844 1418.85L93.6116 1481.55L172.297 1446.65L230.867 1346.1L297.128 1281.63L388.238 1318.9L472.248 1262.12L547.383 1143.83L535.551 1105.97L602.995 1116.62L641.451 1231.95L605.953 1373.9L546.2 1325.4L477.572 1340.19L401.253 1395.78L400.07 1408.21L457.457 1497.51L559.216 1512.3H591.755L613.645 1494.56L672.806 1530.04L634.351 1576.18L544.425 1616.99L541.467 1618.17L548.566 1625.27L643.225 1606.34L644.409 1604.57L736.701 1519.99L677.539 1442.51L689.963 1432.45L692.33 1427.72L693.513 1426.54L789.947 1211.25L782.256 1188.18L975.124 1156.25L1026 1015.48L1021.27 1095.92L971.574 1223.08L889.931 1285.77L817.161 1350.83L785.214 1447.24L810.654 1569.67L820.12 1568.49L811.837 1477.41L904.129 1319.49L1012.99 1265.67L1013.58 1265.07L1030.14 1249.7L1040.2 1309.43H1150.83L1185.74 1346.1L1173.91 1389.87L1091.67 1445.47L1098.18 1456.7L1177.46 1421.22L1233.66 1357.34L1171.54 1260.34L1085.76 1249.1L1086.94 1197.06L1108.24 1177.54L1109.42 1172.22L1292.23 1079.95L1347.25 1001.29L1360.86 839.228L1323.59 822.667ZM1034.29 1103.02L1066.23 1097.69L1015.95 1215.98L1015.35 1217.76L987.548 1221.9L1034.29 1103.02ZM1037.24 964.616L976.898 895.416L896.438 1094.74L888.156 1065.16L962.7 881.221L969.799 877.672L994.055 872.941L1066.23 945.69L1037.24 964.616ZM668.073 1469.12L711.853 1519.99L683.456 1548.38L642.634 1586.82V1582.68L687.005 1529.45L668.073 1469.12ZM517.211 1447.24L498.279 1419.44L600.037 1394.6L555.074 1491.6L517.211 1447.24ZM583.472 1372.72L598.262 1384.55L522.535 1403.47L503.603 1399.92L485.855 1396.38V1356.75L583.472 1372.72ZM459.232 1139.09L435.567 1066.35L508.928 1105.38H517.802L528.451 1139.09H459.232ZM144.491 735.724L240.925 596.733L302.453 649.372L249.799 726.852L144.491 735.724ZM131.475 535.222L198.92 571.892L196.553 644.049L166.972 687.225H124.376L129.109 552.374L131.475 535.222ZM1144.92 122.979L1150.83 133.034L1207.04 315.793L830.177 289.769L763.324 94.5896L870.407 23.0239L1140.19 118.248L1144.92 122.979ZM875.732 1052.15L771.015 1068.71L730.193 994.189L762.141 911.977L851.475 906.062L893.48 837.454V742.23L884.014 638.726L894.663 594.367L922.47 579.581L997.605 587.861L1036.06 605.604V639.909L983.998 720.938L991.689 772.985L1070.37 843.368H1203.49L1273.3 935.635L1269.75 999.512L1221.83 1059.84L1130.13 1097.1L1145.51 1001.88L1130.72 945.098L1040.79 859.338L995.239 845.734L950.276 868.801L875.732 1052.15ZM738.476 1069.89L662.749 1020.21H633.168L616.011 984.725L714.22 998.92L758 1079.36L745.576 1092.96L738.476 1069.89ZM653.283 1092.37H514.844L507.745 1033.22H659.199L713.628 1068.71L653.283 1092.37ZM517.802 353.646L817.161 299.232L652.1 456.558L650.325 457.15L494.729 442.364L517.802 353.646ZM1227.15 780.083L1205.85 827.399H1082.21L1102.32 781.266L1227.15 780.083ZM1073.33 824.442L1007.07 765.297L1001.75 729.218L1054.4 735.724L1092.86 777.126L1073.33 824.442ZM1004.11 719.755L1050.85 647.006L1100.55 645.232L1053.81 726.261L1004.11 719.755ZM333.217 689.591L314.877 651.738L470.473 606.787L449.766 670.073L333.217 689.591ZM482.305 602.056L563.357 515.112L568.09 579.581L477.572 662.975L461.007 666.524L482.305 602.056ZM948.501 404.511L817.161 396.23L667.482 451.827L826.036 300.415L948.501 404.511ZM978.673 416.34L995.83 470.162L871.59 461.29L828.402 406.285L978.673 416.34ZM1052.63 637.543V600.281H1052.03L1112.97 551.191L1105.87 635.177L1052.63 637.543ZM1043.16 595.55L1031.33 590.227L1009.44 577.806L924.836 539.362L1003.52 481.4L1110.6 541.136L1043.16 595.55ZM877.507 738.09V740.456L850.292 778.309L772.79 582.538L808.879 541.728L876.915 726.852L877.507 738.09ZM807.104 846.917L726.052 852.831L683.456 827.399L718.361 819.71L839.051 795.461L807.104 846.917ZM815.978 406.285L860.35 463.064L746.167 495.003L746.759 496.186L736.701 491.454L664.524 462.473L815.978 406.285ZM758.591 501.509L852.067 475.485L811.837 526.941L758.591 501.509ZM733.152 500.326L802.963 533.447L765.691 576.032L579.331 503.875L650.917 468.388L733.152 500.326ZM758 583.129L708.895 632.22L669.257 604.422L585.247 515.704L758 583.129ZM714.811 652.329L721.911 738.681L683.456 713.84L674.581 622.757L714.811 652.329ZM678.131 722.121L717.178 746.962L709.487 750.51L635.534 784.814L595.896 757.608L678.131 722.121ZM585.838 763.522L622.519 788.363L488.813 814.387L469.29 784.814L585.838 763.522ZM463.373 794.278L481.122 820.893L480.53 823.85V824.442L462.19 923.214L445.033 900.739L463.373 794.278ZM727.235 645.232L717.178 638.134L765.099 590.227L842.601 785.406L778.706 798.418L728.419 662.975L727.235 645.232ZM674.581 833.905L717.178 859.338L622.519 956.927L674.581 833.905ZM877.507 757.608V816.753L855.617 788.955L877.507 757.608ZM868.041 471.345L869.224 470.753L989.322 479.625L913.595 535.813L822.486 528.716L868.041 471.345ZM567.498 497.96L505.97 453.601L633.76 465.43L567.498 497.96ZM569.273 591.41L574.006 642.866L495.912 658.835L569.273 591.41ZM584.064 642.275L579.331 593.775L621.336 633.994L629.027 676.579L618.969 681.902L584.064 642.275ZM639.676 681.902L630.21 629.263L577.556 579.581L572.823 517.478L663.341 612.702L672.806 713.84L588.205 751.102L569.865 719.755L639.676 681.902ZM560.99 723.895L579.331 754.651L460.415 776.534L409.536 752.285L560.99 723.895ZM396.52 757.016L455.091 785.406L435.567 897.19H362.798L396.52 757.016ZM443.85 915.526L459.824 936.226L459.232 940.958L495.321 1024.94L498.279 1026.72L503.603 1074.03L442.075 953.97L443.85 915.526ZM507.153 1011.93L475.206 938.592L495.321 830.948L640.267 801.967L642.634 801.375L643.225 800.784L735.518 755.833L731.968 709.7L762.732 793.686L665.707 814.979L662.749 819.71L595.896 977.036L597.079 982.951L610.095 1010.75L507.153 1011.93ZM720.136 870.575L717.178 984.725L715.403 989.457L618.378 975.854L720.136 870.575ZM727.235 957.519L729.01 872.941L748.534 901.922L727.235 957.519ZM756.816 896.599L733.743 862.295L807.695 856.38L834.91 890.685L756.816 896.599ZM844.376 887.136L815.978 851.057L849.7 796.644L877.507 831.539V832.722L844.376 887.136ZM820.12 545.868L879.873 589.635L868.041 638.726L872.774 689.591L820.12 545.868ZM885.789 581.355L827.811 538.77L914.779 545.276L968.616 568.934L920.103 563.611L885.789 581.355ZM1123.62 546.459L1148.47 551.191L1147.28 615.659V620.391L1117.11 631.628L1123.62 546.459ZM1120.66 535.813L1007.07 472.528L991.097 421.663L1088.71 474.894L1141.37 539.953L1120.66 535.813ZM983.998 406.876L964.474 405.694L841.418 300.415L1198.16 324.665L1021.86 427.577L983.998 406.876ZM489.405 453.601L559.807 504.466L477.572 592.593L416.635 539.362L489.405 453.601ZM273.464 573.075L319.018 538.77L387.055 539.953L273.464 573.075ZM410.128 546.459L468.106 597.324L310.144 642.866L251.574 592.593L410.128 546.459ZM307.186 659.427L324.343 694.322L274.055 771.803L259.265 730.401L307.186 659.427ZM278.788 788.363L334.992 702.603L453.907 682.493L576.964 658.835L604.77 690.182L569.865 709.109L386.463 743.413L348.599 901.922L358.657 939.184L289.437 892.459L278.788 788.363ZM363.39 906.654H435.567L432.018 953.378L394.154 1020.21L363.39 906.654ZM436.159 965.207L497.687 1084.68L398.887 1032.04L436.159 965.207ZM1128.94 1003.06L1125.39 1024.35L1126.58 994.78L1128.94 1003.06ZM1024.23 871.758L1031.92 874.124L1104.69 943.324L1075.7 940.958L1007.66 871.758H1024.23ZM1079.25 951.013L1116.52 953.97L1118.3 961.659L1112.97 1105.38L1111.2 1116.03L1078.66 1088.82V951.013H1079.25ZM1121.25 1152.11L1127.17 1116.03L1181.6 1093.55L1210.59 1083.5L1122.44 1151.51L1121.25 1152.11ZM1282.77 920.849L1214.73 831.539L1235.44 784.814L1301.11 883.587L1282.77 920.849ZM1101.14 771.211L1065.05 732.767L1094.04 722.712L1093.45 723.895L1203.49 770.028L1101.14 771.211ZM1093.45 712.657L1068.01 721.529L1113.56 642.275L1139 632.811L1093.45 711.474L1094.04 712.066L1093.45 712.657ZM1095.22 467.796L1094.63 467.205L1042.57 438.815L1192.84 441.772L1115.93 493.82L1095.22 467.796ZM1206.45 432.309L1037.84 428.76L1208.81 328.805V424.029L1206.45 432.309ZM1216.5 312.244L1172.13 167.338L1245.49 289.177L1216.5 312.244ZM682.864 74.4802L841.418 30.7128L756.225 87.4922L624.885 92.2238L682.864 74.4802ZM584.064 105.236L589.388 103.461L754.45 97.5469L821.303 292.135L519.577 347.14L581.106 109.376L584.064 105.236ZM486.447 435.858L453.907 387.359L461.599 280.306L507.153 353.646L486.447 435.858ZM446.216 393.273L472.248 431.717L314.285 408.059L446.216 393.273ZM277.013 412.2L479.347 442.955L482.305 447.095L446.216 489.68V489.088H308.369L273.464 413.382L277.013 412.2ZM306.594 498.552H438.525L413.677 527.533L314.285 525.758L237.967 583.129L206.019 629.263L208.386 571.892L306.594 498.552ZM113.727 693.731L106.036 684.268L116.093 623.348L113.727 693.731ZM123.784 696.688H159.873L140.35 725.078L123.784 705.56V696.688ZM268.731 785.406L280.563 897.782L362.798 953.378V954.561L277.013 901.331L261.04 764.705L268.731 785.406ZM275.83 912.568L358.657 963.433L324.343 1036.18L261.631 988.866L275.83 912.568ZM253.349 982.951L176.438 925.58L266.364 910.794L253.349 982.951ZM366.939 969.348L385.871 1039.14H333.809L366.939 969.348ZM647.367 1105.38L681.089 1211.25L655.649 1226.04L615.419 1105.97H647.367V1105.38ZM623.11 1385.14L759.183 1237.87L678.723 1417.08L619.561 1392.83L623.11 1385.14ZM634.351 1359.11L694.105 1217.17L765.691 1217.76L634.351 1359.11ZM656.833 1236.09L681.089 1222.49L629.618 1345.51L656.833 1236.09ZM485.263 1352.02V1353.2V1352.02ZM475.797 1395.19H424.918L475.797 1357.93V1395.19ZM498.87 1408.8L492.363 1410.57L489.996 1407.02L498.87 1408.8ZM608.912 1398.15L671.623 1424.17L565.723 1491.01L608.912 1398.15ZM769.832 1207.7L690.555 1207.11L656.833 1101.24L724.277 1075.22L728.419 1078.17L769.832 1207.7ZM749.717 1103.02L768.649 1082.91L879.281 1067.53L889.339 1105.97L756.816 1125.49L749.717 1103.02ZM983.998 1232.54L993.464 1230.77L963.883 1247.33L983.998 1232.54ZM900.58 1296.42L909.454 1289.91L1012.99 1231.36L1007.66 1260.34L902.946 1311.8L900.58 1296.42ZM1024.82 1218.94L1076.29 1098.88L1111.2 1128.45L1020.09 1246.15L1024.82 1218.94ZM1239.58 1073.44L1243.13 1072.26L1269.16 1077.58L1167.4 1128.45L1239.58 1073.44ZM1294.01 984.134L1286.91 989.457L1290.46 926.763L1300.51 907.245L1294.01 984.134ZM1304.66 871.758L1255.55 797.826L1312.94 835.088L1304.66 871.758ZM1218.28 387.95V322.89L1240.17 304.555L1218.28 387.95ZM1124.8 102.279L898.805 22.4324H992.281L1049.67 25.3897L1124.8 102.279ZM565.723 129.485L509.52 345.365L462.19 269.66V267.294L565.723 129.485ZM264.589 416.931L299.495 492.046L203.061 563.02L136.208 526.941L264.589 416.931ZM145.082 745.187L248.024 736.907L266.956 900.739L168.156 917.3L145.082 745.187ZM240.333 1246.15L201.878 1237.87L258.673 1209.48L240.333 1246.15ZM272.28 1202.97L377.589 1241.42L381.138 1299.38L251.574 1246.15L272.28 1202.97ZM387.055 1241.42L409.536 1225.45L453.907 1255.61L390.604 1298.2L387.055 1241.42ZM184.129 1246.74L187.679 1244.96L233.825 1255.02L180.58 1314.76L162.831 1269.21V1267.44L184.129 1246.74ZM149.815 1393.42L161.056 1289.91L174.072 1324.22L164.606 1423.58L149.815 1393.42ZM156.915 1429.5L106.627 1450.79V1427.72L141.533 1398.15L156.915 1429.5ZM97.1613 1448.42L24.3922 1394.01V1381L97.1613 1427.72V1448.42ZM14.9263 1392.83L-24.1205 1406.43L14.9263 1381V1392.83ZM14.9263 1402.88V1407.02L-6.96357 1410.57L14.9263 1402.88ZM24.3922 1405.84L95.3865 1459.66L92.4284 1464.98L24.3922 1408.21V1405.84ZM105.444 1462.03L161.056 1438.37L104.852 1463.21L105.444 1462.03ZM183.538 1330.72L217.26 1344.33L175.255 1416.49L183.538 1330.72ZM221.401 1335.46L187.679 1321.85L242.108 1259.75L280.563 1275.72L221.401 1335.46ZM461.599 1249.1L416.044 1218.35L458.64 1148.56H524.902L461.599 1249.1ZM568.682 1360.89L499.462 1349.06L542.65 1339.6L568.682 1360.89ZM413.677 1404.66H476.981L506.562 1448.42L459.824 1477.41L413.677 1405.25V1404.66ZM465.148 1486.28L512.478 1456.7L548.566 1498.7L465.148 1486.28ZM587.613 1499.88H569.273L650.917 1448.42L651.508 1449.02L587.613 1499.88ZM655.649 1462.03L672.215 1515.26L624.294 1486.28L655.649 1462.03ZM633.76 1588.6L634.351 1596.88L594.121 1606.93L633.76 1588.6ZM772.79 1175.17L759.774 1134.95L894.663 1115.44L947.909 1146.19L772.79 1175.17ZM964.474 1143.23L962.108 1143.83L901.171 1108.34L979.857 913.751L1027.78 968.165L964.474 1143.23ZM1043.16 972.305L1069.19 955.153V1087.05L1035.47 1092.96L1041.98 974.671L1043.16 972.305ZM829.585 1359.71L870.999 1322.44L806.512 1428.91L829.585 1359.71ZM800.004 1451.38L801.188 1450.79L802.371 1464.39L800.004 1451.38ZM811.245 1457.3L810.062 1442.51L892.889 1306.48L894.663 1315.94L811.245 1457.3ZM1081.02 1264.48L1139 1272.17L1060.32 1294.65L1081.02 1264.48ZM1152.02 1298.79H1080.43L1160.3 1276.31L1152.02 1298.79ZM1168.58 1282.23L1182.19 1324.22L1161.48 1302.34L1168.58 1282.23ZM1199.35 1354.38L1217.1 1361.48L1188.7 1394.01L1199.35 1354.38ZM1198.76 1343.15L1188.11 1311.21L1212.36 1348.47L1198.76 1343.15ZM1169.77 1411.75L1169.17 1414.12L1160.89 1417.67L1169.77 1411.75ZM1073.33 1258.57L1050.85 1290.51L1042.57 1241.42L1074.52 1212.43L1073.33 1258.57ZM1052.63 1219.53L1107.65 1149.15L1100.55 1176.36L1052.63 1219.53ZM1282.77 1071.08L1249.04 1063.98L1299.92 997.146L1329.5 1004.83L1282.77 1071.08ZM1333.05 995.963L1303.47 987.683L1311.75 884.178L1322.4 839.82L1345.48 852.24L1333.05 995.963Z" fill="#0C1220" stroke="white" stroke-miterlimit="10"/>
</g>
</svg>
